<?xml version="1.0" encoding="UTF-8"?>
<svg id="Layer_1" xmlns="http://www.w3.org/2000/svg" version="1.1" viewBox="0 0 28.35 28.35">
  <!-- Generator: Adobe Illustrator 29.2.1, SVG Export Plug-In . SVG Version: 2.1.0 Build 116)  -->
  <defs>
    <style>
      .st0 {
        fill: #919191;
      }
    </style>
  </defs>
  <path class="st0" d="M12.65.52C7.37,1.12,2.85,4.79,1.16,9.85c-1.65,4.94-.37,10.3,3.34,14.01,1.79,1.79,3.91,3,6.35,3.62,5.05,1.28,10.47-.49,13.81-4.48,4.12-4.92,4.32-11.9.5-17.03-.55-.73-1.65-1.88-2.33-2.43-2.09-1.69-4.58-2.73-7.21-3.01-.67-.08-2.3-.07-2.98,0ZM15.71,1.89c5.74.71,10.22,5.32,10.79,11.11.53,5.48-2.73,10.74-7.93,12.71-1.5.57-2.71.78-4.38.78s-2.88-.21-4.38-.78c-2.56-.98-4.73-2.77-6.17-5.12-2.46-4.01-2.39-9.2.2-13.16,2.08-3.2,5.27-5.13,9.23-5.59.49-.06,1.98-.03,2.65.05Z"/>
  <path class="st0" d="M6.88,7.65c-.08.08-.17.24-.2.35-.02.12-.02,2.96-.02,6.35l.02,6.15.2.17.2.17h12.8l-.02-.38-.02-.38-1.02-.02h-1.02v-3.08h-.88s-.67-1.07-.67-1.07c-.37-.58-.86-1.34-1.08-1.69l-.41-.64-.4.6c-.21.33-.41.64-.43.67-.02.05.22.48.53.98.81,1.27.78,1.13.31,1.13h-.4l-1.36-2.14c-.76-1.17-1.38-2.14-1.41-2.14s-.65.96-1.41,2.14l-1.36,2.16h-.72v-8.08h6.05s6.05.03,6.05.03l.02,2.92v2.93h1.48v-3.36c0-2.23-.02-3.42-.07-3.55-.14-.41.38-.38-7.49-.38h-7.11l-.15.15Z"/>
  <path class="st0" d="M17.25,10.51c-.67.33-.88,1.29-.42,1.89.47.6,1.3.71,1.86.22.66-.58.6-1.56-.13-2.06-.26-.16-.35-.2-.67-.2-.26.01-.45.05-.64.14Z"/>
  <path class="st0" d="M20.78,15.75s-.05.48-.05,1.01v.96h-2.01v1.46h2.02v2.02h1.46v-2.02h2.02v-1.46h-2.02v-2.02h-.7c-.38,0-.71.01-.73.05Z"/>
</svg>