<?xml version="1.0" encoding="UTF-8"?>
<svg id="Layer_1" data-name="Layer 1" xmlns="http://www.w3.org/2000/svg" viewBox="0 0 28.35 28.35">
  <defs>
    <style>
      .cls-1 {
        stroke-width: .31px;
      }

      .cls-1, .cls-2 {
        fill: none;
        stroke: #000;
        stroke-miterlimit: 10;
      }

      .cls-2 {
        stroke-width: .39px;
      }

      .cls-3 {
        fill: #42b64d;
      }
    </style>
  </defs>
  <g>
    <path class="cls-2" d="M26.25,11.93c-1.72-.3-2.65-2.73-1.75-4.17.41-.65,1.41-1.06.85-1.9-.2-.29-1.71-1.8-2.02-2.03-.95-.7-1.31.37-2.04.8-1.53.9-3.98-.18-4.16-2.01-.04-.41.11-1.17-.2-1.48-.1-.1-.39-.18-.53-.2-.45-.05-2.91-.05-3.21.07-.67.27-.38,1.37-.47,1.94-.24,1.45-2.53,2.38-3.8,1.86-.83-.34-1.22-1.58-2.17-1.11-.33.48-2.29,2.07-2.37,2.46-.15.8,1.19,1.34,1.36,2.34.23,1.35-.7,3.26-2.19,3.46-.72.09-1.69-.3-1.84.75-.08.57-.07,2.16,0,2.75.14,1.24,1.14.79,2.01.92,1.4.22,2.27,2.23,1.99,3.49-.22.99-1.72,1.66-1.19,2.51.17.26,1.82,1.9,2.11,2.11.9.67,1.34-.52,2.11-.91,1.38-.69,3.8.25,4,1.86.1.78-.28,1.77.83,1.92.6.08,2.05.07,2.67.01,1.28-.12.79-1.04.92-1.92.23-1.47,2.25-2.4,3.58-2.07"/>
    <path class="cls-1" d="M17.61,21.05c-3.23,1.12-7.2.09-9.05-3.58-2.47-4.9,1.27-10.78,6.75-10.6,2.52.09,4.78,1.49,6.06,3.54"/>
  </g>
  <path class="cls-3" d="M22.3,17.18v4.78h-1.63v-4.78h-4.43v-1.43h4.43v-4.31h1.63v4.31h4.41v1.43h-4.41Z"/>
</svg>