<?xml version="1.0" encoding="utf-8"?>
<!-- Generator: Adobe Illustrator 27.1.1, SVG Export Plug-In . SVG Version: 6.00 Build 0)  -->
<svg version="1.1" id="Layer_1" xmlns="http://www.w3.org/2000/svg" xmlns:xlink="http://www.w3.org/1999/xlink" x="0px" y="0px"
	 viewBox="0 0 178.13 49.96" style="enable-background:new 0 0 178.13 49.96;" xml:space="preserve">
<style type="text/css">
	.st0{fill:url(#SVGID_1_);}
	.st1{clip-path:url(#SVGID_00000182495110962519258550000003885468611401949106_);}
	.st2{clip-path:url(#SVGID_00000089541333284606805100000002156303590757027736_);}
	.st3{fill:#C11C1B;}
	.st4{clip-path:url(#SVGID_00000060714173998293804890000008116302922288660616_);}
	.st5{fill:url(#SVGID_00000160897332782833937850000008922164803758877104_);}
	.st6{fill:url(#SVGID_00000150064750892192638590000015612275281907992758_);}
	.st7{clip-path:url(#SVGID_00000127749794483287903940000014373361601088756390_);}
	.st8{clip-path:url(#SVGID_00000115485369868348423150000005091357071948681129_);}
	.st9{fill:none;stroke:#C11C1B;stroke-width:9;stroke-linecap:round;stroke-miterlimit:10;}
	.st10{fill:none;stroke:#C11C1B;stroke-width:4;stroke-linecap:round;stroke-miterlimit:10;}
	.st11{fill:url(#SVGID_00000126318717225361204340000010717759060307890821_);}
	.st12{fill:#A22222;}
	.st13{clip-path:url(#SVGID_00000001649926888928294040000010726725293457820822_);fill:#A22222;}
	.st14{clip-path:url(#SVGID_00000181784325124881823510000003534165606963280271_);fill:#A22222;}
	.st15{clip-path:url(#SVGID_00000008125311829940310010000004903790747443944636_);}
	.st16{clip-path:url(#SVGID_00000127755796009134594570000011520894355639944069_);}
	.st17{fill:url(#SVGID_00000088112990730599956900000014391678423490603933_);}
	.st18{clip-path:url(#SVGID_00000101087782192972152090000006476536238403129764_);}
	.st19{fill:#7F1416;}
	.st20{fill:#FFFFFF;}
</style>
<g>
	<g>
		<path class="st20" d="M18.75,17.37c0,1.58-0.55,2.84-1.65,3.78c-0.98,0.84-2.23,1.26-3.76,1.26c-1.79,0-3.18-0.63-4.17-1.9
			c-0.76-0.98-1.13-2.13-1.13-3.47c0-1.16,0.29-2.15,0.87-2.97l1.71-0.37c-0.62,0.98-0.93,2.03-0.93,3.16c0,1.16,0.36,2.1,1.07,2.85
			c0.67,0.69,1.53,1.03,2.58,1.03c1.21,0,2.15-0.35,2.81-1.05c0.55-0.59,0.83-1.36,0.83-2.31v-6.89l1.77-0.95V17.37z M13.34,9.35
			c-0.67,0-1.01-0.34-1.01-1.03c0-0.67,0.34-1.01,1.01-1.01c0.66,0,0.99,0.34,0.99,1.01C14.33,9,14,9.35,13.34,9.35z"/>
		<path class="st20" d="M20.81,18.49l0.87-1.67h3.67c0.55,0,0.94-0.14,1.17-0.41c0.23-0.27,0.34-0.75,0.34-1.42
			c0-1.84-0.83-3.24-2.5-4.19l0.87-1.46c2.27,1.29,3.4,3.18,3.4,5.67c0,2.33-0.99,3.49-2.97,3.49H20.81z"/>
		<path class="st20" d="M34.99,17.4c0,1.54-0.41,2.78-1.22,3.71C33,22,31.98,22.45,30.7,22.45c-0.83,0-1.63-0.21-2.41-0.62v-1.55
			c0.7,0.38,1.4,0.58,2.1,0.58c0.88,0,1.57-0.3,2.06-0.89c0.5-0.59,0.74-1.41,0.74-2.46v-7.04l1.8-0.95V17.4z"/>
		<path class="st20" d="M46.36,6.13l1.79-0.95v9.41c0,1.22-0.36,2.19-1.09,2.91c-0.69,0.66-1.59,0.99-2.7,0.99h-7.1l0.87-1.67h3.01
			V8.81l1.77-0.95v8.96h1.3c1.43,0,2.15-0.75,2.15-2.25V6.13z"/>
		<path class="st20" d="M51.87,18.49V6.13l1.77-0.95v13.31H51.87z"/>
		<path class="st20" d="M65.61,18.49c-1.11,0-1.99-0.37-2.62-1.11c-0.55-0.65-0.83-1.49-0.83-2.54v-2.5l1.77-0.95v3.28
			c0,1.43,0.67,2.15,2,2.15h6.85c1.33,0,2-0.72,2-2.15v-4.19l1.77-0.95v5.3c0,1.2-0.36,2.13-1.09,2.79
			c-0.65,0.58-1.48,0.87-2.5,0.87H65.61z M67.7,8.89c-0.67,0-1.01-0.34-1.01-1.03c0-0.67,0.34-1.01,1.01-1.01
			c0.66,0,0.99,0.34,0.99,1.01C68.69,8.55,68.36,8.89,67.7,8.89z M70.32,8.89c-0.67,0-1.01-0.34-1.01-1.03
			c0-0.67,0.34-1.01,1.01-1.01c0.66,0,0.99,0.34,0.99,1.01C71.31,8.55,70.98,8.89,70.32,8.89z"/>
		<path class="st20" d="M79.87,18.49V6.13l1.77-0.95v13.31H79.87z"/>
		<path class="st20" d="M88.41,17.4c0,1.54-0.41,2.78-1.22,3.71c-0.77,0.89-1.79,1.34-3.07,1.34c-0.83,0-1.63-0.21-2.41-0.62v-1.55
			c0.7,0.38,1.4,0.58,2.1,0.58c0.88,0,1.57-0.3,2.06-0.89c0.5-0.59,0.74-1.41,0.74-2.46v-7.04l1.8-0.95V17.4z"/>
		<path class="st20" d="M95.72,18.49c-1.2,0-2.12-0.38-2.77-1.16c-0.55-0.66-0.83-1.5-0.83-2.52V6.13l1.77-0.95v9.57
			c0,1.38,0.67,2.06,2.02,2.06h1.36v1.67H95.72z"/>
		<path class="st20" d="M103.23,16.82h1.36v1.67h-1.57c-1.14,0-2.04-0.36-2.7-1.09c-0.66,0.73-1.56,1.09-2.7,1.09h-1.57v-1.67h1.36
			c1.35,0,2.02-0.69,2.02-2.06v-4.27l1.77-0.95v5.22C101.21,16.13,101.88,16.82,103.23,16.82z M98.3,20.55
			c0.66,0,0.99,0.34,0.99,1.03c0,0.67-0.33,1.01-0.99,1.01c-0.67,0-1.01-0.34-1.01-1.01C97.29,20.9,97.62,20.55,98.3,20.55z
			 M100.92,20.55c0.66,0,0.99,0.34,0.99,1.03c0,0.67-0.33,1.01-0.99,1.01c-0.67,0-1.01-0.34-1.01-1.01
			C99.91,20.9,100.24,20.55,100.92,20.55z"/>
		<path class="st20" d="M103.35,18.49v-1.67h1.86c1.33,0,2-0.69,2-2.06v-2.89l1.77-0.95v3.84c0,1.38,0.67,2.06,2.02,2.06h0.95
			c1.35,0,2.02-0.69,2.02-2.06v-3.59l1.77-0.93v4.52c0,1.38,0.67,2.06,2,2.06h0.97c1.35,0,2.02-0.69,2.02-2.06v-4.27l1.77-0.95v5.28
			c0,1.17-0.35,2.08-1.05,2.74c-0.62,0.61-1.44,0.92-2.48,0.93h-1.42c-1.21,0-2.11-0.41-2.7-1.22c-0.59,0.8-1.47,1.2-2.64,1.22
			h-1.42c-1.18,0-2.08-0.41-2.7-1.22c-0.59,0.81-1.49,1.22-2.7,1.22H103.35z"/>
		<path class="st20" d="M135.67,17.99c-1.31,0.78-2.1,1.32-2.37,1.61c-0.55,0.54-0.83,1.2-0.83,2c0,0.88,0.3,1.59,0.91,2.14
			c0.6,0.54,1.39,0.81,2.35,0.81c1.51-0.01,2.78-0.38,3.8-1.09v1.67c-1.18,0.73-2.48,1.09-3.88,1.09c-1.53,0-2.75-0.5-3.67-1.51
			c-0.8-0.85-1.2-1.91-1.2-3.16c0-0.94,0.25-1.73,0.74-2.38c0.5-0.65,1.37-1.34,2.62-2.05c-1.13-0.83-2.28-2.12-3.47-3.88v-0.91
			c0.67-0.96,1.46-1.72,2.37-2.26c0.91-0.54,1.83-0.81,2.76-0.81c0.92,0,1.84,0.28,2.77,0.84c0.92,0.56,1.71,1.32,2.37,2.28v0.87
			c-0.7,1.06-1.86,2.24-3.49,3.53c0.3,0.03,0.54,0.04,0.72,0.04h5.45l0.02,1.67h-5.61C137.23,18.49,136.44,18.32,135.67,17.99z
			 M132.32,12.81c1.24,1.69,2.37,2.81,3.38,3.36c1.33-0.91,2.53-2.04,3.59-3.4c-1.02-1.24-2.18-1.86-3.49-1.88
			C134.49,10.9,133.33,11.54,132.32,12.81z"/>
		<path class="st20" d="M160.86,16.82h1.36v1.67h-1.57c-1.1,0-1.96-0.32-2.58-0.97c-0.56,0.65-1.36,0.97-2.39,0.97h-13.27v-1.67
			h3.84l0.06-0.23V6.13l1.77-0.95v7.55c1.57-2.31,3.51-3.47,5.84-3.47c1.55,0,2.8,0.54,3.73,1.63c0.8,0.92,1.2,2.06,1.2,3.4v0.5
			C158.86,16.14,159.53,16.82,160.86,16.82z M157.06,14.88V14.3c0-1.07-0.33-1.93-0.99-2.56c-0.56-0.55-1.27-0.83-2.13-0.83
			c-1.42,0-2.7,0.64-3.84,1.92c-0.85,0.96-1.53,2.17-2.02,3.61v0.37h7.45c0.59,0,0.99-0.14,1.21-0.41
			C156.96,16.13,157.06,15.62,157.06,14.88z"/>
		<path class="st20" d="M160.98,18.49v-1.67h3.71c-0.63-0.7-0.95-1.68-0.95-2.93c0-1.5,0.39-2.67,1.18-3.51
			c0.69-0.74,1.6-1.11,2.74-1.11c1.17,0,2.08,0.36,2.72,1.09c0.55,0.65,0.83,1.49,0.83,2.54v1.96c-0.01,1.14-0.35,2.04-1.01,2.7
			c-0.65,0.62-1.51,0.93-2.58,0.93H160.98z M166.37,7.18c-0.67,0-1.01-0.34-1.01-1.03c0-0.67,0.34-1.01,1.01-1.01
			c0.66,0,0.99,0.34,0.99,1.01C167.36,6.84,167.03,7.18,166.37,7.18z M169.45,12.98c0-1.38-0.59-2.06-1.77-2.06
			c-0.67,0-1.2,0.26-1.59,0.77c-0.39,0.52-0.58,1.23-0.58,2.16c0,0.91,0.19,1.63,0.56,2.17s0.87,0.8,1.49,0.8
			c1.27,0,1.9-0.66,1.9-1.98V12.98z M168.99,7.18c-0.67,0-1.01-0.34-1.01-1.03c0-0.67,0.34-1.01,1.01-1.01
			c0.66,0,0.99,0.34,0.99,1.01C169.98,6.84,169.65,7.18,168.99,7.18z"/>
	</g>
	<g>
		<path class="st20" d="M11.41,29.67v12.32c0,1.67-0.76,2.5-2.28,2.5c-0.8,0-1.58-0.27-2.35-0.8l0.59-0.92
			c0.47,0.27,0.92,0.41,1.35,0.41c0.65,0,0.98-0.44,0.98-1.31V29.67H11.41z"/>
		<path class="st20" d="M21.03,41.6c-1.27,0-2.3-0.47-3.09-1.42c-0.68-0.81-1.02-1.81-1.02-2.98c0-1.36,0.41-2.45,1.24-3.29
			c0.74-0.76,1.69-1.15,2.85-1.15c1.33,0,2.38,0.49,3.15,1.46c0.63,0.81,0.94,1.81,0.94,2.98c0,1.34-0.43,2.44-1.29,3.29
			C23.04,41.23,22.12,41.6,21.03,41.6z M21,40.34c0.74,0,1.33-0.28,1.77-0.85c0.44-0.57,0.66-1.33,0.66-2.29c0-1-0.23-1.79-0.7-2.39
			c-0.43-0.56-1-0.83-1.7-0.83c-0.72,0-1.29,0.3-1.74,0.89c-0.44,0.59-0.67,1.37-0.67,2.33c0,1.04,0.25,1.84,0.74,2.41
			C19.78,40.1,20.33,40.34,21,40.34z"/>
		<path class="st20" d="M31.91,33.81h0.07c0.58-0.7,1.26-1.05,2.03-1.05c0.99,0,1.71,0.38,2.18,1.15l-1.33,0.83
			c-0.41-0.41-0.85-0.61-1.33-0.61c-0.62,0-1.13,0.31-1.55,0.94v6.31h-1.59v-8.4h1.37L31.91,33.81z"/>
		<path class="st20" d="M46.91,41.38l-0.24-0.89c-0.55,0.74-1.39,1.11-2.5,1.11c-1.25,0-2.23-0.46-2.94-1.37
			c-0.6-0.76-0.91-1.73-0.91-2.89c0-1.53,0.44-2.71,1.33-3.55c0.71-0.69,1.58-1.04,2.61-1.04c0.94,0,1.7,0.3,2.29,0.89v-3.27
			l1.59-0.89v11.9H46.91z M46.56,38.73V35.4c-0.09-0.38-0.33-0.71-0.73-1c-0.4-0.28-0.83-0.43-1.29-0.43c-0.75,0-1.36,0.3-1.83,0.89
			c-0.47,0.59-0.7,1.36-0.7,2.29c0,1.07,0.25,1.89,0.74,2.46c0.43,0.49,0.99,0.74,1.67,0.74c0.47,0,0.91-0.16,1.32-0.47
			C46.15,39.58,46.43,39.19,46.56,38.73z"/>
		<path class="st20" d="M60.36,41.38h-1.24l-0.19-0.87c-0.67,0.73-1.57,1.09-2.7,1.09c-0.86,0-1.54-0.24-2.04-0.71
			c-0.5-0.47-0.75-1.12-0.75-1.93c0-0.93,0.38-1.64,1.14-2.14c0.76-0.5,1.83-0.75,3.23-0.75h0.98v-0.09c0-1.28-0.65-1.92-1.94-1.92
			c-0.83,0-1.6,0.27-2.31,0.8L54.06,34c0.96-0.83,2.07-1.24,3.31-1.24c2,0,3,1.19,3,3.57V41.38z M58.77,37.14h-0.81
			c-1.9,0-2.85,0.57-2.85,1.7c0,0.47,0.14,0.84,0.42,1.11s0.65,0.41,1.12,0.41s0.91-0.12,1.31-0.36c0.41-0.24,0.68-0.55,0.81-0.92
			V37.14z"/>
		<path class="st20" d="M67.6,33.81h0.09c0.63-0.7,1.5-1.05,2.63-1.05c2.06,0,3.09,1.21,3.09,3.63v5h-1.59v-4.9
			c0-1.57-0.69-2.35-2.07-2.35c-0.38,0-0.77,0.09-1.17,0.28s-0.68,0.41-0.87,0.67v6.31h-1.59v-8.4h1.33L67.6,33.81z"/>
		<path class="st20" d="M94.57,40.25c-1.04,0.9-2.16,1.35-3.39,1.35c-1.78,0-3.15-0.68-4.13-2.05c-0.76-1.08-1.15-2.39-1.15-3.9
			c0-1.73,0.47-3.2,1.42-4.42c0.94-1.18,2.13-1.78,3.57-1.78c1.28,0,2.45,0.43,3.52,1.28l-0.68,1.04c-0.84-0.55-1.67-0.83-2.5-0.83
			c-1.12,0-2,0.46-2.65,1.39c-0.58,0.84-0.87,1.95-0.87,3.33c0,1.37,0.36,2.47,1.09,3.29c0.67,0.76,1.53,1.15,2.59,1.15
			c0.8,0,1.63-0.29,2.48-0.87L94.57,40.25z"/>
		<path class="st20" d="M106.26,41.38h-1.24l-0.19-0.87c-0.67,0.73-1.57,1.09-2.7,1.09c-0.86,0-1.54-0.24-2.04-0.71
			c-0.5-0.47-0.75-1.12-0.75-1.93c0-0.93,0.38-1.64,1.14-2.14c0.76-0.5,1.83-0.75,3.23-0.75h0.98v-0.09c0-1.28-0.65-1.92-1.94-1.92
			c-0.83,0-1.6,0.27-2.31,0.8L99.95,34c0.96-0.83,2.07-1.24,3.31-1.24c2,0,3,1.19,3,3.57V41.38z M104.67,37.14h-0.81
			c-1.9,0-2.85,0.57-2.85,1.7c0,0.47,0.14,0.84,0.42,1.11s0.65,0.41,1.12,0.41s0.91-0.12,1.31-0.36c0.41-0.24,0.68-0.55,0.81-0.92
			V37.14z"/>
		<path class="st20" d="M113.53,33.81h0.07c0.58-0.7,1.26-1.05,2.03-1.05c0.99,0,1.71,0.38,2.18,1.15l-1.33,0.83
			c-0.41-0.41-0.85-0.61-1.33-0.61c-0.62,0-1.13,0.31-1.55,0.94v6.31h-1.59v-8.4h1.37L113.53,33.81z"/>
		<path class="st20" d="M130,41.38V29.69c1.08-0.16,2.08-0.24,3-0.24c2.84,0,4.25,1.2,4.25,3.59c0,1.3-0.43,2.28-1.29,2.94
			c-0.7,0.54-1.6,0.81-2.7,0.81c-0.53,0-1.04-0.04-1.54-0.13v4.72H130z M131.72,30.94v4.33c0.49,0.09,1,0.13,1.54,0.13
			c1.46,0,2.18-0.79,2.18-2.37c0-1.48-0.78-2.22-2.35-2.22C132.52,30.82,132.06,30.86,131.72,30.94z"/>
		<path class="st20" d="M148.94,41.38h-1.24l-0.19-0.87c-0.67,0.73-1.57,1.09-2.7,1.09c-0.86,0-1.54-0.24-2.04-0.71
			c-0.5-0.47-0.75-1.12-0.75-1.93c0-0.93,0.38-1.64,1.14-2.14c0.76-0.5,1.83-0.75,3.23-0.75h0.98v-0.09c0-1.28-0.65-1.92-1.94-1.92
			c-0.83,0-1.6,0.27-2.31,0.8L142.63,34c0.96-0.83,2.07-1.24,3.31-1.24c2,0,3,1.19,3,3.57V41.38z M147.35,37.14h-0.81
			c-1.9,0-2.85,0.57-2.85,1.7c0,0.47,0.14,0.84,0.42,1.11s0.65,0.41,1.12,0.41s0.91-0.12,1.31-0.36c0.41-0.24,0.68-0.55,0.81-0.92
			V37.14z"/>
		<path class="st20" d="M156.21,33.81h0.07c0.58-0.7,1.26-1.05,2.03-1.05c0.99,0,1.71,0.38,2.18,1.15l-1.33,0.83
			c-0.41-0.41-0.85-0.61-1.33-0.61c-0.62,0-1.13,0.31-1.55,0.94v6.31h-1.59v-8.4h1.37L156.21,33.81z"/>
		<path class="st20" d="M167.37,34.27l-0.02,4.88c0,0.81,0.31,1.22,0.93,1.22c0.43,0,0.86-0.12,1.28-0.37l0.56,0.85
			c-0.68,0.51-1.41,0.76-2.2,0.76c-1.43,0-2.15-0.78-2.15-2.35v-5h-1.24v-1.29h1.26v-1.72l1.59-0.83v2.55h2.52v1.29H167.37z"/>
	</g>
</g>
</svg>
